<svg width="28" height="32" viewBox="0 0 28 32" fill="none" xmlns="http://www.w3.org/2000/svg">
<path d="M26.0335 0.199945L0.683117 16.7489C-0.306833 17.3926 -0.181038 18.9521 0.803443 19.4225C4.29032 21.0779 8.44134 20.3638 11.1745 17.6382L22.3307 6.51257C22.6316 6.20931 23.0582 6.67348 22.8011 7.02624L11.5308 22.5638C10.2924 24.2711 9.62548 26.3263 9.62548 28.4354V30.1725C9.62548 31.6331 11.1842 32.2086 11.9499 31.1504C13.9637 28.3765 17.6675 27.4304 20.7649 28.8987L22.2378 29.597C23.0144 29.9683 23.9004 29.4175 24.0427 28.4706L27.9806 1.73478C28.1665 0.484632 26.9797 -0.41894 26.0335 0.199945Z" fill="white"/>
</svg>
